999
dxfrw 0.6.3
  0
SECTION
  2
HEADER
  9
$ACADVER
  1
AC1021
  9
$DWGCODEPAGE
  3
ANSI_1252
  9
$INSBASE
 10
0
 20
0
 30
0
  9
$EXTMIN
 10
0.02370014554553768
 20
0.2192368747581574
 30
0
  9
$EXTMAX
 10
15.15746469774808
 20
6.219236874758157
 30
0
  9
$LIMMIN
 10
0
 20
0
  9
$LIMMAX
 10
420
 20
297
  9
$ORTHOMODE
 70
    0
  9
$REGENMODE
 70
    1
  9
$FILLMODE
 70
    1
  9
$QTEXTMODE
 70
    0
  9
$MIRRTEXT
 70
    0
  9
$LTSCALE
 40
1
  9
$ATTMODE
 70
    0
  9
$TEXTSIZE
 40
2.5
  9
$TRACEWID
 40
15.68
  9
$TEXTSTYLE
  7
STANDARD
  9
$CLAYER
  8
0
  9
$CELTYPE
  6
BYLAYER
  9
$CECOLOR
 62
  256
  9
$CELTSCALE
 40
1
  9
$DISPSILH
 70
    0
  9
$DIMSCALE
 40
2.5
  9
$DIMASZ
 40
2.5
  9
$DIMEXO
 40
0.625
  9
$DIMDLI
 40
3.75
  9
$DIMRND
 40
0
  9
$DIMDLE
 40
0
  9
$DIMEXE
 40
1.25
  9
$DIMTP
 40
0
  9
$DIMTM
 40
0
  9
$DIMTXT
 40
2.5
  9
$DIMCEN
 40
2.5
  9
$DIMTSZ
 40
0
  9
$DIMTOL
 70
    0
  9
$DIMLIM
 70
    0
  9
$DIMTIH
 70
    0
  9
$DIMTOH
 70
    0
  9
$DIMSE1
 70
    0
  9
$DIMSE2
 70
    0
  9
$DIMTAD
 70
    1
  9
$DIMZIN
 70
    8
  9
$DIMBLK
  1

  9
$DIMASO
 70
    1
  9
$DIMSHO
 70
    1
  9
$DIMPOST
  1

  9
$DIMAPOST
  1

  9
$DIMALT
 70
    0
  9
$DIMALTD
 70
    3
  9
$DIMALTF
 40
0.03937
  9
$DIMLFAC
 40
1
  9
$DIMTOFL
 70
    1
  9
$DIMTVP
 40
0
  9
$DIMTIX
 70
    0
  9
$DIMSOXD
 70
    0
  9
$DIMSAH
 70
    0
  9
$DIMBLK1
  1

  9
$DIMBLK2
  1

  9
$DIMSTYLE
  2
STANDARD
  9
$DIMCLRD
 70
    0
  9
$DIMCLRE
 70
    0
  9
$DIMCLRT
 70
    0
  9
$DIMTFAC
 40
1
  9
$DIMGAP
 40
0.625
  9
$DIMJUST
 70
    0
  9
$DIMSD1
 70
    0
  9
$DIMSD2
 70
    0
  9
$DIMTOLJ
 70
    0
  9
$DIMTZIN
 70
    8
  9
$DIMALTZ
 70
    0
  9
$DIMALTTZ
 70
    0
  9
$DIMUPT
 70
    0
  9
$DIMDEC
 70
    2
  9
$DIMTDEC
 70
    2
  9
$DIMALTU
 70
    2
  9
$DIMALTTD
 70
    3
  9
$DIMTXSTY
  7
STANDARD
  9
$DIMAUNIT
 70
    0
  9
$DIMADEC
 70
    0
  9
$DIMALTRND
 40
0
  9
$DIMAZIN
 70
    0
  9
$DIMDSEP
 70
   44
  9
$DIMATFIT
 70
    3
  9
$DIMFRAC
 70
    0
  9
$DIMLDRBLK
  1
STANDARD
  9
$DIMLUNIT
 70
    2
  9
$DIMLWD
 70
   -2
  9
$DIMLWE
 70
   -2
  9
$DIMTMOVE
 70
    0
  9
$DIMFXL
 40
1
  9
$DIMFXLON
 70
    0
  9
$DIMJOGANG
 40
0.7854
  9
$DIMTFILL
 70
    0
  9
$DIMTFILLCLR
 70
    0
  9
$DIMARCSYM
 70
    0
  9
$DIMLTYPE
  6

  9
$DIMLTEX1
  6

  9
$DIMLTEX2
  6

  9
$LUNITS
 70
    2
  9
$LUPREC
 70
    4
  9
$SKETCHINC
 40
1
  9
$FILLETRAD
 40
0
  9
$AUNITS
 70
    0
  9
$AUPREC
 70
    2
  9
$MENU
  1
.
  9
$ELEVATION
 40
0
  9
$PELEVATION
 40
0
  9
$THICKNESS
 40
0
  9
$LIMCHECK
 70
    0
  9
$CHAMFERA
 40
0
  9
$CHAMFERB
 40
0
  9
$CHAMFERC
 40
0
  9
$CHAMFERD
 40
0
  9
$SKPOLY
 70
    0
  9
$USRTIMER
 70
    1
  9
$ANGBASE
 50
0
  9
$ANGDIR
 70
    0
  9
$PDMODE
 70
   34
  9
$PDSIZE
 40
0
  9
$PLINEWID
 40
0
  9
$SPLFRAME
 70
    0
  9
$SPLINETYPE
 70
    2
  9
$SPLINESEGS
 70
    8
  9
$HANDSEED
  5
20000
  9
$SURFTAB1
 70
    6
  9
$SURFTAB2
 70
    6
  9
$SURFTYPE
 70
    6
  9
$SURFU
 70
    6
  9
$SURFV
 70
    6
  9
$UCSBASE
  2

  9
$UCSNAME
  2

  9
$UCSORG
 10
0
 20
0
 30
0
  9
$UCSXDIR
 10
1
 20
0
 30
0
  9
$UCSYDIR
 10
0
 20
1
 30
0
  9
$UCSORTHOREF
  2

  9
$UCSORTHOVIEW
 70
    0
  9
$UCSORGTOP
 10
0
 20
0
 30
0
  9
$UCSORGBOTTOM
 10
0
 20
0
 30
0
  9
$UCSORGLEFT
 10
0
 20
0
 30
0
  9
$UCSORGRIGHT
 10
0
 20
0
 30
0
  9
$UCSORGFRONT
 10
0
 20
0
 30
0
  9
$UCSORGBACK
 10
0
 20
0
 30
0
  9
$PUCSBASE
  2

  9
$PUCSNAME
  2

  9
$PUCSORG
 10
0
 20
0
 30
0
  9
$PUCSXDIR
 10
1
 20
0
 30
0
  9
$PUCSYDIR
 10
0
 20
1
 30
0
  9
$PUCSORTHOREF
  2

  9
$PUCSORTHOVIEW
 70
    0
  9
$PUCSORGTOP
 10
0
 20
0
 30
0
  9
$PUCSORGBOTTOM
 10
0
 20
0
 30
0
  9
$PUCSORGLEFT
 10
0
 20
0
 30
0
  9
$PUCSORGRIGHT
 10
0
 20
0
 30
0
  9
$PUCSORGFRONT
 10
0
 20
0
 30
0
  9
$PUCSORGBACK
 10
0
 20
0
 30
0
  9
$USERI1
 70
    0
  9
$USERI2
 70
    0
  9
$USERI3
 70
    0
  9
$USERI4
 70
    0
  9
$USERI5
 70
    0
  9
$USERR1
 40
0
  9
$USERR2
 40
0
  9
$USERR3
 40
0
  9
$USERR4
 40
0
  9
$USERR5
 40
0
  9
$WORLDVIEW
 70
    1
  9
$SHADEDGE
 70
    3
  9
$SHADEDIF
 70
   70
  9
$TILEMODE
 70
    1
  9
$MAXACTVP
 70
   64
  9
$PINSBASE
 10
0
 20
0
 30
0
  9
$PLIMCHECK
 70
    0
  9
$PEXTMIN
 10
0
 20
0
 30
0
  9
$PEXTMAX
 10
0
 20
0
 30
0
  9
$GRIDMODE
 70
    1
  9
$SNAPSTYLE
 70
    0
  9
$PLIMMIN
 10
0
 20
0
  9
$PLIMMAX
 10
420
 20
297
  9
$UNITMODE
 70
    0
  9
$VISRETAIN
 70
    1
  9
$PLINEGEN
 70
    0
  9
$PSLTSCALE
 70
    1
  9
$TREEDEPTH
 70
 3020
  9
$CMLSTYLE
  2
Standard
  9
$CMLJUST
 70
    0
  9
$CMLSCALE
 40
20
  9
$PROXYGRAPHICS
 70
    1
  9
$MEASUREMENT
 70
    1
  9
$CELWEIGHT
370
   -1
  9
$ENDCAPS
280
    0
  9
$JOINSTYLE
280
    0
  9
$LWDISPLAY
290
    0
  9
$INSUNITS
 70
    4
  9
$HYPERLINKBASE
  1

  9
$STYLESHEET
  1

  9
$XEDIT
290
    1
  9
$CEPSNTYPE
380
    0
  9
$PSTYLEMODE
290
    1
  9
$EXTNAMES
290
    1
  9
$PSVPSCALE
 40
1
  9
$OLESTARTUP
290
    0
  9
$SORTENTS
280
  127
  9
$INDEXCTL
280
    0
  9
$HIDETEXT
280
    1
  9
$XCLIPFRAME
290
    0
  9
$HALOGAP
280
    0
  9
$OBSCOLOR
 70
  257
  9
$OBSLTYPE
280
    0
  9
$INTERSECTIONDISPLAY
280
    0
  9
$INTERSECTIONCOLOR
 70
  257
  9
$DIMASSOC
280
    1
  9
$PROJECTNAME
  1

  9
$CAMERADISPLAY
290
    0
  9
$LENSLENGTH
 40
50
  9
$CAMERAHEIGHT
 40
0
  9
$STEPSPERSEC
 40
2
  9
$STEPSIZE
 40
50
  9
$3DDWFPREC
 40
2
  9
$PSOLWIDTH
 40
5
  9
$PSOLHEIGHT
 40
80
  9
$LOFTANG1
 40
1.570796326794897
  9
$LOFTANG2
 40
1.570796326794897
  9
$LOFTMAG1
 40
0
  9
$LOFTMAG2
 40
0
  9
$LOFTPARAM
 70
    7
  9
$LOFTNORMALS
280
    1
  9
$LATITUDE
 40
1
  9
$LONGITUDE
 40
1
  9
$NORTHDIRECTION
 40
0
  9
$TIMEZONE
 70
-8000
  9
$LIGHTGLYPHDISPLAY
280
    1
  9
$TILEMODELIGHTSYNCH
280
    1
  9
$SOLIDHIST
280
    1
  9
$SHOWHIST
280
    1
  9
$DWFFRAME
280
    2
  9
$DGNFRAME
280
    0
  9
$REALWORLDSCALE
290
    1
  9
$INTERFERECOLOR
 62
    1
  9
$CSHADOW
280
    0
  9
$SHADOWPLANELOCATION
 40
0
  0
ENDSEC
  0
SECTION
  2
CLASSES
  0
ENDSEC
  0
SECTION
  2
TABLES
  0
TABLE
  2
VPORT
  5
8
330
0
100
AcDbSymbolTable
 70
    1
  0
VPORT
  5
31
330
2
100
AcDbSymbolTableRecord
100
AcDbViewportTableRecord
  2
*ACTIVE
 70
    0
 10
0
 20
0
 11
1
 21
1
 12
15.38504898295711
 22
7.487509354393959
 13
0
 23
0
 14
10
 24
10
 15
10
 25
10
 16
0
 26
0
 36
1
 17
0
 27
0
 37
0
 40
23.42520783731824
 41
1.910197869101979
 42
50
 43
0
 44
0
 50
0
 51
0
 71
    0
 72
  100
 73
    1
 74
    3
 75
    0
 76
    1
 77
    0
 78
    0
281
    0
 65
    1
110
0
120
0
130
0
111
1
121
0
131
0
112
0
122
1
132
0
 79
    0
146
0
348
10020
 60
    7
 61
    5
292
1
282
    1
141
0
142
0
 63
  250
421
3358443
  0
ENDTAB
  0
TABLE
  2
LTYPE
  5
5
330
0
100
AcDbSymbolTable
 70
    4
  0
LTYPE
  5
14
330
5
100
AcDbSymbolTableRecord
100
AcDbLinetypeTableRecord
  2
ByBlock
 70
    0
  3

 72
   65
 73
    0
 40
0
  0
LTYPE
  5
15
330
5
100
AcDbSymbolTableRecord
100
AcDbLinetypeTableRecord
  2
ByLayer
 70
    0
  3

 72
   65
 73
    0
 40
0
  0
LTYPE
  5
16
330
5
100
AcDbSymbolTableRecord
100
AcDbLinetypeTableRecord
  2
Continuous
 70
    0
  3
Solid line
 72
   65
 73
    0
 40
0
  0
LTYPE
  5
32
330
5
100
AcDbSymbolTableRecord
100
AcDbLinetypeTableRecord
  2
DOT
 70
    0
  3
Dot . . . . . . . . . . . . . . . . . . . . . .
 72
   65
 73
    2
 40
6.35
 49
0
 74
    0
 49
-6.35
 74
    0
  0
LTYPE
  5
33
330
5
100
AcDbSymbolTableRecord
100
AcDbLinetypeTableRecord
  2
DOTTINY
 70
    0
  3
Dot (.15x) .....................................
 72
   65
 73
    2
 40
0.9525
 49
0
 74
    0
 49
-0.9525
 74
    0
  0
LTYPE
  5
34
330
5
100
AcDbSymbolTableRecord
100
AcDbLinetypeTableRecord
  2
DOT2
 70
    0
  3
Dot (.5x) .....................................
 72
   65
 73
    2
 40
3.175
 49
0
 74
    0
 49
-3.175
 74
    0
  0
LTYPE
  5
35
330
5
100
AcDbSymbolTableRecord
100
AcDbLinetypeTableRecord
  2
DOTX2
 70
    0
  3
Dot (2x) .  .  .  .  .  .  .  .  .  .  .  .  .
 72
   65
 73
    2
 40
12.7
 49
0
 74
    0
 49
-12.7
 74
    0
  0
LTYPE
  5
36
330
5
100
AcDbSymbolTableRecord
100
AcDbLinetypeTableRecord
  2
DASHED
 70
    0
  3
Dashed _ _ _ _ _ _ _ _ _ _ _ _ _ _ _ _ _
 72
   65
 73
    2
 40
19.05
 49
12.7
 74
    0
 49
-6.35
 74
    0
  0
LTYPE
  5
37
330
5
100
AcDbSymbolTableRecord
100
AcDbLinetypeTableRecord
  2
DASHEDTINY
 70
    0
  3
Dashed (.15x) _ _ _ _ _ _ _ _ _ _ _ _ _ _ _ _ _
 72
   65
 73
    2
 40
2.8575
 49
1.905
 74
    0
 49
-0.9525
 74
    0
  0
LTYPE
  5
38
330
5
100
AcDbSymbolTableRecord
100
AcDbLinetypeTableRecord
  2
DASHED2
 70
    0
  3
Dashed (.5x) _ _ _ _ _ _ _ _ _ _ _ _ _ _ _ _ _
 72
   65
 73
    2
 40
9.524999999999999
 49
6.35
 74
    0
 49
-3.175
 74
    0
  0
LTYPE
  5
39
330
5
100
AcDbSymbolTableRecord
100
AcDbLinetypeTableRecord
  2
DASHEDX2
 70
    0
  3
Dashed (2x) ____  ____  ____  ____  ____  ___
 72
   65
 73
    2
 40
38.09999999999999
 49
25.4
 74
    0
 49
-12.7
 74
    0
  0
LTYPE
  5
3A
330
5
100
AcDbSymbolTableRecord
100
AcDbLinetypeTableRecord
  2
DASHDOT
 70
    0
  3
Dash dot __ . __ . __ . __ . __ . __ . __ . __
 72
   65
 73
    4
 40
25.4
 49
12.7
 74
    0
 49
-6.35
 74
    0
 49
0
 74
    0
 49
-6.35
 74
    0
  0
LTYPE
  5
3B
330
5
100
AcDbSymbolTableRecord
100
AcDbLinetypeTableRecord
  2
DASHDOTTINY
 70
    0
  3
Dash dot (.15x) _._._._._._._._._._._._._._._.
 72
   65
 73
    4
 40
3.81
 49
1.905
 74
    0
 49
-0.9525
 74
    0
 49
0
 74
    0
 49
-0.9525
 74
    0
  0
LTYPE
  5
3C
330
5
100
AcDbSymbolTableRecord
100
AcDbLinetypeTableRecord
  2
DASHDOT2
 70
    0
  3
Dash dot (.5x) _._._._._._._._._._._._._._._.
 72
   65
 73
    4
 40
12.7
 49
6.35
 74
    0
 49
-3.175
 74
    0
 49
0
 74
    0
 49
-3.175
 74
    0
  0
LTYPE
  5
3D
330
5
100
AcDbSymbolTableRecord
100
AcDbLinetypeTableRecord
  2
DASHDOTX2
 70
    0
  3
Dash dot (2x) ____  .  ____  .  ____  .  ___
 72
   65
 73
    4
 40
50.8
 49
25.4
 74
    0
 49
-12.7
 74
    0
 49
0
 74
    0
 49
-12.7
 74
    0
  0
LTYPE
  5
3E
330
5
100
AcDbSymbolTableRecord
100
AcDbLinetypeTableRecord
  2
DIVIDE
 70
    0
  3
Divide ____ . . ____ . . ____ . . ____ . . ____
 72
   65
 73
    6
 40
31.75
 49
12.7
 74
    0
 49
-6.35
 74
    0
 49
0
 74
    0
 49
-6.35
 74
    0
 49
0
 74
    0
 49
-6.35
 74
    0
  0
LTYPE
  5
3F
330
5
100
AcDbSymbolTableRecord
100
AcDbLinetypeTableRecord
  2
DIVIDETINY
 70
    0
  3
Divide (.15x) __..__..__..__..__..__..__..__.._
 72
   65
 73
    6
 40
4.7625
 49
1.905
 74
    0
 49
-0.9525
 74
    0
 49
0
 74
    0
 49
-0.9525
 74
    0
 49
0
 74
    0
 49
-0.9525
 74
    0
  0
LTYPE
  5
40
330
5
100
AcDbSymbolTableRecord
100
AcDbLinetypeTableRecord
  2
DIVIDE2
 70
    0
  3
Divide (.5x) __..__..__..__..__..__..__..__.._
 72
   65
 73
    6
 40
15.875
 49
6.35
 74
    0
 49
-3.175
 74
    0
 49
0
 74
    0
 49
-3.175
 74
    0
 49
0
 74
    0
 49
-3.175
 74
    0
  0
LTYPE
  5
41
330
5
100
AcDbSymbolTableRecord
100
AcDbLinetypeTableRecord
  2
DIVIDEX2
 70
    0
  3
Divide (2x) ________  .  .  ________  .  .  _
 72
   65
 73
    6
 40
63.5
 49
25.4
 74
    0
 49
-12.7
 74
    0
 49
0
 74
    0
 49
-12.7
 74
    0
 49
0
 74
    0
 49
-12.7
 74
    0
  0
LTYPE
  5
42
330
5
100
AcDbSymbolTableRecord
100
AcDbLinetypeTableRecord
  2
BORDER
 70
    0
  3
Border __ __ . __ __ . __ __ . __ __ . __ __ .
 72
   65
 73
    6
 40
44.45
 49
12.7
 74
    0
 49
-6.35
 74
    0
 49
12.7
 74
    0
 49
-6.35
 74
    0
 49
0
 74
    0
 49
-6.35
 74
    0
  0
LTYPE
  5
43
330
5
100
AcDbSymbolTableRecord
100
AcDbLinetypeTableRecord
  2
BORDERTINY
 70
    0
  3
Border (.15x) __.__.__.__.__.__.__.__.__.__.__.
 72
   65
 73
    6
 40
6.6675
 49
1.905
 74
    0
 49
-0.9525
 74
    0
 49
1.905
 74
    0
 49
-0.9525
 74
    0
 49
0
 74
    0
 49
-0.9525
 74
    0
  0
LTYPE
  5
44
330
5
100
AcDbSymbolTableRecord
100
AcDbLinetypeTableRecord
  2
BORDER2
 70
    0
  3
Border (.5x) __.__.__.__.__.__.__.__.__.__.__.
 72
   65
 73
    6
 40
22.225
 49
6.35
 74
    0
 49
-3.175
 74
    0
 49
6.35
 74
    0
 49
-3.175
 74
    0
 49
0
 74
    0
 49
-3.175
 74
    0
  0
LTYPE
  5
45
330
5
100
AcDbSymbolTableRecord
100
AcDbLinetypeTableRecord
  2
BORDERX2
 70
    0
  3
Border (2x) ____  ____  .  ____  ____  .  ___
 72
   65
 73
    6
 40
88.89999999999999
 49
25.4
 74
    0
 49
-12.7
 74
    0
 49
25.4
 74
    0
 49
-12.7
 74
    0
 49
0
 74
    0
 49
-12.7
 74
    0
  0
LTYPE
  5
46
330
5
100
AcDbSymbolTableRecord
100
AcDbLinetypeTableRecord
  2
CENTER
 70
    0
  3
Center ____ _ ____ _ ____ _ ____ _ ____ _ ____
 72
   65
 73
    4
 40
50.8
 49
31.75
 74
    0
 49
-6.35
 74
    0
 49
6.35
 74
    0
 49
-6.35
 74
    0
  0
LTYPE
  5
47
330
5
100
AcDbSymbolTableRecord
100
AcDbLinetypeTableRecord
  2
CENTERTINY
 70
    0
  3
Center (.15x) ___ _ ___ _ ___ _ ___ _ ___ _ ___
 72
   65
 73
    4
 40
7.619999999999999
 49
4.7625
 74
    0
 49
-0.9525
 74
    0
 49
0.9525
 74
    0
 49
-0.9525
 74
    0
  0
LTYPE
  5
48
330
5
100
AcDbSymbolTableRecord
100
AcDbLinetypeTableRecord
  2
CENTER2
 70
    0
  3
Center (.5x) ___ _ ___ _ ___ _ ___ _ ___ _ ___
 72
   65
 73
    4
 40
28.575
 49
19.05
 74
    0
 49
-3.175
 74
    0
 49
3.175
 74
    0
 49
-3.175
 74
    0
  0
LTYPE
  5
49
330
5
100
AcDbSymbolTableRecord
100
AcDbLinetypeTableRecord
  2
CENTERX2
 70
    0
  3
Center (2x) ________  __  ________  __  _____
 72
   65
 73
    4
 40
101.6
 49
63.5
 74
    0
 49
-12.7
 74
    0
 49
12.7
 74
    0
 49
-12.7
 74
    0
  0
ENDTAB
  0
TABLE
  2
LAYER
  5
2
330
0
100
AcDbSymbolTable
 70
    1
  0
LAYER
  5
10
330
2
100
AcDbSymbolTableRecord
100
AcDbLayerTableRecord
  2
0
 70
    0
 62
    7
  6
CONTINUOUS
370
    0
390
F
  0
LAYER
  5
4A
330
2
100
AcDbSymbolTableRecord
100
AcDbLayerTableRecord
  2
Engraving
 70
    0
 62
    7
  6
CONTINUOUS
370
   -3
390
F
  0
ENDTAB
  0
TABLE
  2
STYLE
  5
3
330
0
100
AcDbSymbolTable
 70
    3
  0
STYLE
  5
4B
330
2
100
AcDbSymbolTableRecord
100
AcDbTextStyleTableRecord
  2
Standard
 70
    0
 40
0
 41
1
 50
0
 71
    0
 42
1
  3
txt
  4

  0
ENDTAB
  0
TABLE
  2
VIEW
  5
6
330
0
100
AcDbSymbolTable
 70
    0
  0
ENDTAB
  0
TABLE
  2
UCS
  5
7
330
0
100
AcDbSymbolTable
 70
    0
  0
ENDTAB
  0
TABLE
  2
APPID
  5
9
330
0
100
AcDbSymbolTable
 70
    1
  0
APPID
  5
12
330
9
100
AcDbSymbolTableRecord
100
AcDbRegAppTableRecord
  2
ACAD
 70
    0
  0
APPID
  5
4C
330
9
100
AcDbSymbolTableRecord
100
AcDbRegAppTableRecord
  2
LibreCad
 70
    0
  0
ENDTAB
  0
TABLE
  2
DIMSTYLE
  5
A
330
0
100
AcDbSymbolTable
 70
    1
100
AcDbDimStyleTable
 71
    1
  0
DIMSTYLE
105
4D
330
A
100
AcDbSymbolTableRecord
100
AcDbDimStyleTableRecord
  2
Standard
 70
    0
 40
2.5
 41
2.5
 42
0.625
 43
0.38
 44
1.25
 45
0
 46
0
 47
0
 48
0
 49
1
140
2.5
141
0.09
142
0
143
25.4
144
1
145
0
146
1
147
0.625
148
0
 71
    0
 72
    0
 73
    0
 74
    1
 75
    0
 76
    0
 77
    0
 78
    8
 79
    0
170
    0
171
    2
172
    0
173
    0
174
    0
175
    0
176
    0
177
    0
178
    0
179
    0
271
    2
272
    4
273
    2
274
    2
275
    0
276
    0
277
    2
278
   44
279
    0
280
    0
281
    0
282
    0
283
    1
284
    0
285
    0
286
    0
288
    0
289
    3
340
STANDARD
341

371
   -2
372
   -2
  0
ENDTAB
  0
TABLE
  2
BLOCK_RECORD
  5
1
330
0
100
AcDbSymbolTable
 70
    2
  0
BLOCK_RECORD
  5
1F
330
1
100
AcDbSymbolTableRecord
100
AcDbBlockTableRecord
  2
*Model_Space
 70
    0
280
    1
281
    0
  0
BLOCK_RECORD
  5
1E
330
1
100
AcDbSymbolTableRecord
100
AcDbBlockTableRecord
  2
*Paper_Space
 70
    0
280
    1
281
    0
  0
ENDTAB
  0
ENDSEC
  0
SECTION
  2
BLOCKS
  0
BLOCK
  5
20
330
1F
100
AcDbEntity
  8
0
100
AcDbBlockBegin
  2
*Model_Space
 70
    0
 10
0
 20
0
 30
0
  3
*Model_Space
  1

  0
ENDBLK
  5
21
330
1F
100
AcDbEntity
  8
0
100
AcDbBlockEnd
  0
BLOCK
  5
1C
330
1B
100
AcDbEntity
  8
0
100
AcDbBlockBegin
  2
*Paper_Space
 70
    0
 10
0
 20
0
 30
0
  3
*Paper_Space
  1

  0
ENDBLK
  5
1D
330
1F
100
AcDbEntity
  8
0
100
AcDbBlockEnd
  0
ENDSEC
  0
SECTION
  2
ENTITIES
  0
HATCH
  5
4E
100
AcDbEntity
  8
0
  6
ByLayer
 62
  256
370
   -1
100
AcDbHatch
 10
0
 20
0
 30
0
210
0
220
0
230
1
  2
SOLID
 70
    1
 71
    0
 91
    1
 92
    0
 93
   59
 72
    1
 10
6.397402565550559
 20
9.794175052225823
 11
6.397402565550559
 21
6.794175052225822
 72
    1
 10
6.397402565550559
 20
6.794175052225822
 11
5.179715232217214
 21
6.794175052225822
 72
    1
 10
5.179715232217214
 20
6.794175052225822
 11
5.179715232217214
 21
7.916624052225822
 72
    1
 10
5.179715232217214
 20
7.916624052225822
 11
4.064069232217245
 21
6.794175052225822
 72
    1
 10
4.064069232217245
 20
6.794175052225822
 11
1.683116898883875
 21
6.794175052225822
 72
    1
 10
1.683116898883875
 20
6.794175052225822
 11
1.683116898883875
 21
6.794175052225822
 72
    1
 10
1.683116898883875
 20
6.794175052225822
 11
1.683116898883875
 21
6.794175052225822
 72
    1
 10
1.683116898883875
 20
6.794175052225822
 11
1.519001232217229
 21
6.801403052225822
 72
    1
 10
1.519001232217229
 20
6.801403052225822
 11
1.359987565550549
 21
6.82308671889249
 72
    1
 10
1.359987565550549
 20
6.82308671889249
 11
1.20607589888389
 21
6.859226052225823
 72
    1
 10
1.20607589888389
 20
6.859226052225823
 11
1.057266565550586
 21
6.909821385559156
 72
    1
 10
1.057266565550586
 20
6.909821385559156
 11
1.057266565550586
 21
6.909821385559156
 72
    1
 10
1.057266565550586
 20
6.909821385559156
 11
1.057266565550586
 21
6.909821385559156
 72
    1
 10
1.057266565550586
 20
6.909821385559156
 11
0.9156848988838902
 21
6.973171718892489
 72
    1
 10
0.9156848988838902
 20
6.973171718892489
 11
0.7834568988838924
 21
7.047576385559156
 72
    1
 10
0.7834568988838924
 20
7.047576385559156
 11
0.6605825655505355
 21
7.13303571889249
 72
    1
 10
0.6605825655505355
 20
7.13303571889249
 11
0.547062232217209
 21
7.229549052225822
 72
    1
 10
0.547062232217209
 20
7.229549052225822
 11
0.547062232217209
 21
7.229549052225822
 72
    1
 10
0.547062232217209
 20
7.229549052225822
 11
0.547062232217209
 21
7.229549052225822
 72
    1
 10
0.547062232217209
 20
7.229549052225822
 11
0.4437458988838698
 21
7.336267052225823
 72
    1
 10
0.4437458988838698
 20
7.336267052225823
 11
0.3514842322172541
 21
7.452338385559155
 72
    1
 10
0.3514842322172541
 20
7.452338385559155
 11
0.2702765655505828
 21
7.577763385559155
 72
    1
 10
0.2702765655505828
 20
7.577763385559155
 11
0.2001235655505779
 21
7.712542385559157
 72
    1
 10
0.2001235655505779
 20
7.712542385559157
 11
0.2001235655505779
 21
7.712542385559157
 72
    1
 10
0.2001235655505779
 20
7.712542385559157
 11
0.2001235655505779
 21
7.712542385559157
 72
    1
 10
0.2001235655505779
 20
7.712542385559157
 11
0.1465522322172119
 21
7.854974385559156
 72
    1
 10
0.1465522322172119
 20
7.854974385559156
 11
0.1082868988839123
 21
8.003358718892489
 72
    1
 10
0.1082868988839123
 20
8.003358718892489
 11
0.08532756555056542
 21
8.157695385559157
 72
    1
 10
0.08532756555056542
 20
8.157695385559157
 11
0.07767456555056063
 21
8.31798471889249
 72
    1
 10
0.07767456555056063
 20
8.31798471889249
 11
0.07767456555056063
 21
8.31798471889249
 72
    1
 10
0.07767456555056063
 20
8.31798471889249
 11
0.07767456555056063
 21
8.31798471889249
 72
    1
 10
0.07767456555056063
 20
8.31798471889249
 11
0.08617789888391192
 21
8.46551871889249
 72
    1
 10
0.08617789888391192
 20
8.46551871889249
 11
0.1116882322172414
 21
8.608801052225822
 72
    1
 10
0.1116882322172414
 20
8.608801052225822
 11
0.1542052322172168
 21
8.747831385559156
 72
    1
 10
0.1542052322172168
 20
8.747831385559156
 11
0.2137288988838945
 21
8.882610385559156
 72
    1
 10
0.2137288988838945
 20
8.882610385559156
 11
0.2137288988838945
 21
8.882610385559156
 72
    1
 10
0.2137288988838945
 20
8.882610385559156
 11
0.2137288988838945
 21
8.882610385559156
 72
    1
 10
0.2137288988838945
 20
8.882610385559156
 11
0.2872835655505611
 21
9.013988052225823
 72
    1
 10
0.2872835655505611
 20
9.013988052225823
 11
0.3718922322172288
 21
9.13601171889249
 72
    1
 10
0.3718922322172288
 20
9.13601171889249
 11
0.4675555655505633
 21
9.24868171889249
 72
    1
 10
0.4675555655505633
 20
9.24868171889249
 11
0.5742732322172315
 21
9.351998052225824
 72
    1
 10
0.5742732322172315
 20
9.351998052225824
 11
0.5742732322172315
 21
9.351998052225824
 72
    1
 10
0.5742732322172315
 20
9.351998052225824
 11
0.5742732322172315
 21
9.351998052225824
 72
    1
 10
0.5742732322172315
 20
9.351998052225824
 11
0.6945962322172163
 21
9.44851171889249
 72
    1
 10
0.6945962322172163
 20
9.44851171889249
 11
0.8242732322172315
 21
9.533971052225823
 72
    1
 10
0.8242732322172315
 20
9.533971052225823
 11
0.9633038988838876
 21
9.608375718892489
 72
    1
 10
0.9633038988838876
 20
9.608375718892489
 11
1.111688232217241
 21
9.671726052225821
 72
    1
 10
1.111688232217241
 20
9.671726052225821
 11
1.111688232217241
 21
9.671726052225821
 72
    1
 10
1.111688232217241
 20
9.671726052225821
 11
1.111688232217241
 21
9.671726052225821
 72
    1
 10
1.111688232217241
 20
9.671726052225821
 11
1.267300565550536
 21
9.725297385559156
 72
    1
 10
1.267300565550536
 20
9.725297385559156
 11
1.428014565550578
 21
9.763562718892491
 72
    1
 10
1.428014565550578
 20
9.763562718892491
 11
1.593830898883917
 21
9.786522052225823
 72
    1
 10
1.593830898883917
 20
9.786522052225823
 11
1.764749232217221
 21
9.794175052225823
 72
    1
 10
1.764749232217221
 20
9.794175052225823
 11
6.397402565550559
 21
9.794175052225823
 72
    1
 10
5.172912565550556
 20
8.549277052225822
 11
1.34298056555057
 21
8.549277052225822
 72
    1
 10
1.34298056555057
 20
8.549277052225822
 11
1.34298056555057
 21
8.025467718892489
 72
    1
 10
1.34298056555057
 20
8.025467718892489
 11
5.172912565550556
 21
8.025467718892489
 72
    1
 10
5.172912565550556
 20
8.025467718892489
 11
5.172912565550556
 21
8.549277052225822
 72
    1
 10
5.172912565550556
 20
8.549277052225822
 11
6.397402565550559
 21
9.794175052225823
 97
    0
 75
    0
 76
    1
 98
    0
  0
HATCH
  5
4F
100
AcDbEntity
  8
0
  6
ByLayer
 62
  256
370
   -1
100
AcDbHatch
 10
0
 20
0
 30
0
210
0
220
0
230
1
  2
SOLID
 70
    1
 71
    0
 91
    1
 92
    0
 93
   71
 72
    1
 10
12.42971978441976
 20
11.4044131436622
 11
12.09959311775308
 21
11.4044131436622
 72
    1
 10
12.09959311775308
 20
11.4044131436622
 11
12.09959311775308
 21
9.719506476995521
 72
    1
 10
12.09959311775308
 20
9.719506476995521
 11
12.41889578441976
 21
9.719506476995521
 72
    1
 10
12.41889578441976
 20
9.719506476995521
 11
12.41889578441976
 21
9.719506476995521
 72
    1
 10
12.41889578441976
 20
9.719506476995521
 11
12.41889578441976
 21
9.719506476995521
 72
    1
 10
12.41889578441976
 20
9.719506476995521
 11
12.50356978441975
 21
9.72548181032886
 72
    1
 10
12.50356978441975
 20
9.72548181032886
 11
12.57538978441975
 21
9.743409143662193
 72
    1
 10
12.57538978441975
 20
9.743409143662193
 11
12.63435711775309
 21
9.773287143662204
 72
    1
 10
12.63435711775309
 20
9.773287143662204
 11
12.6804711177531
 21
9.815116476995529
 72
    1
 10
12.6804711177531
 20
9.815116476995529
 11
12.6804711177531
 21
9.815116476995529
 72
    1
 10
12.6804711177531
 20
9.815116476995529
 11
12.6804711177531
 21
9.815116476995529
 72
    1
 10
12.6804711177531
 20
9.815116476995529
 11
12.7159871177531
 21
9.872505810328862
 72
    1
 10
12.7159871177531
 20
9.872505810328862
 11
12.74135511775308
 21
9.947257810328866
 72
    1
 10
12.74135511775308
 20
9.947257810328866
 11
12.75657645108641
 21
10.03937247699553
 72
    1
 10
12.75657645108641
 20
10.03937247699553
 11
12.76164978441975
 21
10.1488511436622
 72
    1
 10
12.76164978441975
 20
10.1488511436622
 11
12.76164978441975
 21
10.96965647699552
 72
    1
 10
12.76164978441975
 20
10.96965647699552
 11
12.76164978441975
 21
10.96965647699552
 72
    1
 10
12.76164978441975
 20
10.96965647699552
 11
12.76164978441975
 21
10.96965647699552
 72
    1
 10
12.76164978441975
 20
10.96965647699552
 11
12.75680178441976
 21
11.07924781032887
 72
    1
 10
12.75680178441976
 20
11.07924781032887
 11
12.74225711775308
 21
11.17170114366219
 72
    1
 10
12.74225711775308
 20
11.17170114366219
 11
12.71801645108642
 21
11.24701714366219
 72
    1
 10
12.71801645108642
 20
11.24701714366219
 11
12.68407911775308
 21
11.30519514366219
 72
    1
 10
12.68407911775308
 20
11.30519514366219
 11
12.68407911775308
 21
11.30519514366219
 72
    1
 10
12.68407911775308
 20
11.30519514366219
 11
12.68407911775308
 21
11.30519514366219
 72
    1
 10
12.68407911775308
 20
11.30519514366219
 11
12.63909245108642
 21
11.34860314366219
 72
    1
 10
12.63909245108642
 20
11.34860314366219
 11
12.58170378441975
 21
11.37960847699553
 72
    1
 10
12.58170378441975
 20
11.37960847699553
 11
12.51191311775309
 21
11.39821181032886
 72
    1
 10
12.51191311775309
 20
11.39821181032886
 11
12.42971978441976
 21
11.4044131436622
 72
    1
 10
9.649803784419758
 20
6.757389810328861
 11
9.649803784419758
 21
12.75738981032886
 72
    1
 10
9.649803784419758
 20
12.75738981032886
 11
13.65461445108643
 21
12.75738981032886
 72
    1
 10
13.65461445108643
 20
12.75738981032886
 11
13.65461445108643
 21
12.75738981032886
 72
    1
 10
13.65461445108643
 20
12.75738981032886
 11
13.65461445108643
 21
12.75738981032886
 72
    1
 10
13.65461445108643
 20
12.75738981032886
 11
13.85688445108642
 21
12.7527671436622
 72
    1
 10
13.85688445108642
 20
12.7527671436622
 11
14.04336978441976
 21
12.7388991436622
 72
    1
 10
14.04336978441976
 20
12.7388991436622
 11
14.21407045108642
 21
12.71578581032887
 72
    1
 10
14.21407045108642
 20
12.71578581032887
 11
14.36898578441976
 21
12.68342714366219
 72
    1
 10
14.36898578441976
 20
12.68342714366219
 11
14.36898578441976
 21
12.68342714366219
 72
    1
 10
14.36898578441976
 20
12.68342714366219
 11
14.36898578441976
 21
12.68342714366219
 72
    1
 10
14.36898578441976
 20
12.68342714366219
 11
14.51014645108642
 21
12.64137181032886
 72
    1
 10
14.51014645108642
 20
12.64137181032886
 11
14.63777711775308
 21
12.58916981032885
 72
    1
 10
14.63777711775308
 20
12.58916981032885
 11
14.75187845108642
 21
12.52681981032886
 72
    1
 10
14.75187845108642
 20
12.52681981032886
 11
14.85244978441976
 21
12.45432314366219
 72
    1
 10
14.85244978441976
 20
12.45432314366219
 11
14.85244978441976
 21
12.45432314366219
 72
    1
 10
14.85244978441976
 20
12.45432314366219
 11
14.85244978441976
 21
12.45432314366219
 72
    1
 10
14.85244978441976
 20
12.45432314366219
 11
14.93982911775309
 21
12.37100247699553
 72
    1
 10
14.93982911775309
 20
12.37100247699553
 11
15.01435578441976
 21
12.2761811436622
 72
    1
 10
15.01435578441976
 20
12.2761811436622
 11
15.07602911775309
 21
12.16985981032886
 72
    1
 10
15.07602911775309
 20
12.16985981032886
 11
15.1248491177531
 21
12.05203781032886
 72
    1
 10
15.1248491177531
 20
12.05203781032886
 11
15.1248491177531
 21
12.05203781032886
 72
    1
 10
15.1248491177531
 20
12.05203781032886
 11
15.1248491177531
 21
12.05203781032886
 72
    1
 10
15.1248491177531
 20
12.05203781032886
 11
15.16273245108642
 21
11.9226031436622
 72
    1
 10
15.16273245108642
 20
11.9226031436622
 11
15.18979178441976
 21
11.78144247699552
 72
    1
 10
15.18979178441976
 20
11.78144247699552
 11
15.20602778441976
 21
11.62855647699553
 72
    1
 10
15.20602778441976
 20
11.62855647699553
 11
15.2114391177531
 21
11.46394447699552
 72
    1
 10
15.2114391177531
 20
11.46394447699552
 11
15.2114391177531
 21
9.809705143662201
 72
    1
 10
15.2114391177531
 20
9.809705143662201
 11
15.2114391177531
 21
9.809705143662201
 72
    1
 10
15.2114391177531
 20
9.809705143662201
 11
15.2114391177531
 21
9.809705143662201
 72
    1
 10
15.2114391177531
 20
9.809705143662201
 11
15.1896791177531
 21
9.433915810328871
 72
    1
 10
15.1896791177531
 20
9.433915810328871
 11
15.12439778441975
 21
9.120137810328858
 72
    1
 10
15.12439778441975
 20
9.120137810328858
 11
15.01559578441975
 21
8.868371143662188
 72
    1
 10
15.01559578441975
 20
8.868371143662188
 11
14.86327311775309
 21
8.678616476995531
 72
    1
 10
14.86327311775309
 20
8.678616476995531
 11
14.86327311775309
 21
8.678616476995531
 72
    1
 10
14.86327311775309
 20
8.678616476995531
 11
14.86327311775309
 21
8.678616476995531
 72
    1
 10
14.86327311775309
 20
8.678616476995531
 11
14.66190511775309
 21
8.539711143662204
 72
    1
 10
14.66190511775309
 20
8.539711143662204
 11
14.39333978441975
 21
8.440492476995532
 72
    1
 10
14.39333978441975
 20
8.440492476995532
 11
14.05757578441976
 21
8.380961810328857
 72
    1
 10
14.05757578441976
 20
8.380961810328857
 11
13.65461445108643
 21
8.361117810328865
 72
    1
 10
13.65461445108643
 20
8.361117810328865
 11
12.09959311775308
 21
8.361117810328865
 72
    1
 10
12.09959311775308
 20
8.361117810328865
 11
12.09959311775308
 21
6.757389810328861
 72
    1
 10
12.09959311775308
 20
6.757389810328861
 11
9.649803784419758
 21
6.757389810328861
 72
    1
 10
9.649803784419758
 20
6.757389810328861
 11
12.42971978441976
 21
11.4044131436622
 97
    0
 75
    0
 76
    1
 98
    0
  0
LINE
  5
50
100
AcDbEntity
  8
Engraving
  6
ByLayer
 62
  256
370
    0
100
AcDbLine
 10
6.343428145545536
 20
3.256022116655119
 11
6.343428145545536
 21
0.2560221166551186
  0
LINE
  5
51
100
AcDbEntity
  8
Engraving
  6
ByLayer
 62
  256
370
    0
100
AcDbLine
 10
6.343428145545536
 20
0.2560221166551186
 11
5.125740812212191
 21
0.2560221166551186
  0
LINE
  5
52
100
AcDbEntity
  8
Engraving
  6
ByLayer
 62
  256
370
    0
100
AcDbLine
 10
5.125740812212191
 20
0.2560221166551186
 11
5.125740812212191
 21
1.378471116655118
  0
LINE
  5
53
100
AcDbEntity
  8
Engraving
  6
ByLayer
 62
  256
370
    0
100
AcDbLine
 10
5.125740812212191
 20
1.378471116655118
 11
4.010094812212222
 21
0.2560221166551186
  0
LINE
  5
54
100
AcDbEntity
  8
Engraving
  6
ByLayer
 62
  256
370
    0
100
AcDbLine
 10
4.010094812212222
 20
0.2560221166551186
 11
1.629142478878852
 21
0.2560221166551186
  0
LINE
  5
55
100
AcDbEntity
  8
Engraving
  6
ByLayer
 62
  256
370
    0
100
AcDbLine
 10
1.629142478878852
 20
0.2560221166551186
 11
1.629142478878852
 21
0.2560221166551186
  0
LINE
  5
56
100
AcDbEntity
  8
Engraving
  6
ByLayer
 62
  256
370
    0
100
AcDbLine
 10
1.629142478878852
 20
0.2560221166551186
 11
1.629142478878852
 21
0.2560221166551186
  0
LINE
  5
57
100
AcDbEntity
  8
Engraving
  6
ByLayer
 62
  256
370
    0
100
AcDbLine
 10
1.629142478878852
 20
0.2560221166551186
 11
1.465026812212206
 21
0.2632501166551182
  0
LINE
  5
58
100
AcDbEntity
  8
Engraving
  6
ByLayer
 62
  256
370
    0
100
AcDbLine
 10
1.465026812212206
 20
0.2632501166551182
 11
1.306013145545526
 21
0.2849337833217862
  0
LINE
  5
59
100
AcDbEntity
  8
Engraving
  6
ByLayer
 62
  256
370
    0
100
AcDbLine
 10
1.306013145545526
 20
0.2849337833217862
 11
1.152101478878867
 21
0.3210731166551191
  0
LINE
  5
5A
100
AcDbEntity
  8
Engraving
  6
ByLayer
 62
  256
370
    0
100
AcDbLine
 10
1.152101478878867
 20
0.3210731166551191
 11
1.003292145545563
 21
0.3716684499884528
  0
LINE
  5
5B
100
AcDbEntity
  8
Engraving
  6
ByLayer
 62
  256
370
    0
100
AcDbLine
 10
1.003292145545563
 20
0.3716684499884528
 11
1.003292145545563
 21
0.3716684499884528
  0
LINE
  5
5C
100
AcDbEntity
  8
Engraving
  6
ByLayer
 62
  256
370
    0
100
AcDbLine
 10
1.003292145545563
 20
0.3716684499884528
 11
1.003292145545563
 21
0.3716684499884528
  0
LINE
  5
5D
100
AcDbEntity
  8
Engraving
  6
ByLayer
 62
  256
370
    0
100
AcDbLine
 10
1.003292145545563
 20
0.3716684499884528
 11
0.8617104788788672
 21
0.4350187833217851
  0
LINE
  5
5E
100
AcDbEntity
  8
Engraving
  6
ByLayer
 62
  256
370
    0
100
AcDbLine
 10
0.8617104788788672
 20
0.4350187833217851
 11
0.7294824788788694
 21
0.5094234499884513
  0
LINE
  5
5F
100
AcDbEntity
  8
Engraving
  6
ByLayer
 62
  256
370
    0
100
AcDbLine
 10
0.7294824788788694
 20
0.5094234499884513
 11
0.6066081455455126
 21
0.5948827833217858
  0
LINE
  5
60
100
AcDbEntity
  8
Engraving
  6
ByLayer
 62
  256
370
    0
100
AcDbLine
 10
0.6066081455455126
 20
0.5948827833217858
 11
0.493087812212186
 21
0.6913961166551181
  0
LINE
  5
61
100
AcDbEntity
  8
Engraving
  6
ByLayer
 62
  256
370
    0
100
AcDbLine
 10
0.493087812212186
 20
0.6913961166551181
 11
0.493087812212186
 21
0.6913961166551181
  0
LINE
  5
62
100
AcDbEntity
  8
Engraving
  6
ByLayer
 62
  256
370
    0
100
AcDbLine
 10
0.493087812212186
 20
0.6913961166551181
 11
0.493087812212186
 21
0.6913961166551181
  0
LINE
  5
63
100
AcDbEntity
  8
Engraving
  6
ByLayer
 62
  256
370
    0
100
AcDbLine
 10
0.493087812212186
 20
0.6913961166551181
 11
0.3897714788788469
 21
0.7981141166551189
  0
LINE
  5
64
100
AcDbEntity
  8
Engraving
  6
ByLayer
 62
  256
370
    0
100
AcDbLine
 10
0.3897714788788469
 20
0.7981141166551189
 11
0.2975098122122311
 21
0.9141854499884512
  0
LINE
  5
65
100
AcDbEntity
  8
Engraving
  6
ByLayer
 62
  256
370
    0
100
AcDbLine
 10
0.2975098122122311
 20
0.9141854499884512
 11
0.2163021455455598
 21
1.039610449988451
  0
LINE
  5
66
100
AcDbEntity
  8
Engraving
  6
ByLayer
 62
  256
370
    0
100
AcDbLine
 10
0.2163021455455598
 20
1.039610449988451
 11
0.146149145545555
 21
1.174389449988453
  0
LINE
  5
67
100
AcDbEntity
  8
Engraving
  6
ByLayer
 62
  256
370
    0
100
AcDbLine
 10
0.146149145545555
 20
1.174389449988453
 11
0.146149145545555
 21
1.174389449988453
  0
LINE
  5
68
100
AcDbEntity
  8
Engraving
  6
ByLayer
 62
  256
370
    0
100
AcDbLine
 10
0.146149145545555
 20
1.174389449988453
 11
0.146149145545555
 21
1.174389449988453
  0
LINE
  5
69
100
AcDbEntity
  8
Engraving
  6
ByLayer
 62
  256
370
    0
100
AcDbLine
 10
0.146149145545555
 20
1.174389449988453
 11
0.09257781221218897
 21
1.316821449988452
  0
LINE
  5
6A
100
AcDbEntity
  8
Engraving
  6
ByLayer
 62
  256
370
    0
100
AcDbLine
 10
0.09257781221218897
 20
1.316821449988452
 11
0.05431247887888935
 21
1.465205783321785
  0
LINE
  5
6B
100
AcDbEntity
  8
Engraving
  6
ByLayer
 62
  256
370
    0
100
AcDbLine
 10
0.05431247887888935
 20
1.465205783321785
 11
0.03135314554554247
 21
1.619542449988452
  0
LINE
  5
6C
100
AcDbEntity
  8
Engraving
  6
ByLayer
 62
  256
370
    0
100
AcDbLine
 10
0.03135314554554247
 20
1.619542449988452
 11
0.02370014554553768
 21
1.779831783321785
  0
LINE
  5
6D
100
AcDbEntity
  8
Engraving
  6
ByLayer
 62
  256
370
    0
100
AcDbLine
 10
0.02370014554553768
 20
1.779831783321785
 11
0.02370014554553768
 21
1.779831783321785
  0
LINE
  5
6E
100
AcDbEntity
  8
Engraving
  6
ByLayer
 62
  256
370
    0
100
AcDbLine
 10
0.02370014554553768
 20
1.779831783321785
 11
0.02370014554553768
 21
1.779831783321785
  0
LINE
  5
6F
100
AcDbEntity
  8
Engraving
  6
ByLayer
 62
  256
370
    0
100
AcDbLine
 10
0.02370014554553768
 20
1.779831783321785
 11
0.03220347887888897
 21
1.927365783321786
  0
LINE
  5
70
100
AcDbEntity
  8
Engraving
  6
ByLayer
 62
  256
370
    0
100
AcDbLine
 10
0.03220347887888897
 20
1.927365783321786
 11
0.0577138122122185
 21
2.070648116655117
  0
LINE
  5
71
100
AcDbEntity
  8
Engraving
  6
ByLayer
 62
  256
370
    0
100
AcDbLine
 10
0.0577138122122185
 20
2.070648116655117
 11
0.1002308122121938
 21
2.209678449988452
  0
LINE
  5
72
100
AcDbEntity
  8
Engraving
  6
ByLayer
 62
  256
370
    0
100
AcDbLine
 10
0.1002308122121938
 20
2.209678449988452
 11
0.1597544788788716
 21
2.344457449988452
  0
LINE
  5
73
100
AcDbEntity
  8
Engraving
  6
ByLayer
 62
  256
370
    0
100
AcDbLine
 10
0.1597544788788716
 20
2.344457449988452
 11
0.1597544788788716
 21
2.344457449988452
  0
LINE
  5
74
100
AcDbEntity
  8
Engraving
  6
ByLayer
 62
  256
370
    0
100
AcDbLine
 10
0.1597544788788716
 20
2.344457449988452
 11
0.1597544788788716
 21
2.344457449988452
  0
LINE
  5
75
100
AcDbEntity
  8
Engraving
  6
ByLayer
 62
  256
370
    0
100
AcDbLine
 10
0.1597544788788716
 20
2.344457449988452
 11
0.2333091455455381
 21
2.475835116655119
  0
LINE
  5
76
100
AcDbEntity
  8
Engraving
  6
ByLayer
 62
  256
370
    0
100
AcDbLine
 10
0.2333091455455381
 20
2.475835116655119
 11
0.3179178122122059
 21
2.597858783321786
  0
LINE
  5
77
100
AcDbEntity
  8
Engraving
  6
ByLayer
 62
  256
370
    0
100
AcDbLine
 10
0.3179178122122059
 20
2.597858783321786
 11
0.4135811455455403
 21
2.710528783321786
  0
LINE
  5
78
100
AcDbEntity
  8
Engraving
  6
ByLayer
 62
  256
370
    0
100
AcDbLine
 10
0.4135811455455403
 20
2.710528783321786
 11
0.5202988122122085
 21
2.813845116655119
  0
LINE
  5
79
100
AcDbEntity
  8
Engraving
  6
ByLayer
 62
  256
370
    0
100
AcDbLine
 10
0.5202988122122085
 20
2.813845116655119
 11
0.5202988122122085
 21
2.813845116655119
  0
LINE
  5
7A
100
AcDbEntity
  8
Engraving
  6
ByLayer
 62
  256
370
    0
100
AcDbLine
 10
0.5202988122122085
 20
2.813845116655119
 11
0.5202988122122085
 21
2.813845116655119
  0
LINE
  5
7B
100
AcDbEntity
  8
Engraving
  6
ByLayer
 62
  256
370
    0
100
AcDbLine
 10
0.5202988122122085
 20
2.813845116655119
 11
0.6406218122121934
 21
2.910358783321786
  0
LINE
  5
7C
100
AcDbEntity
  8
Engraving
  6
ByLayer
 62
  256
370
    0
100
AcDbLine
 10
0.6406218122121934
 20
2.910358783321786
 11
0.7702988122122085
 21
2.995818116655119
  0
LINE
  5
7D
100
AcDbEntity
  8
Engraving
  6
ByLayer
 62
  256
370
    0
100
AcDbLine
 10
0.7702988122122085
 20
2.995818116655119
 11
0.9093294788788646
 21
3.070222783321785
  0
LINE
  5
7E
100
AcDbEntity
  8
Engraving
  6
ByLayer
 62
  256
370
    0
100
AcDbLine
 10
0.9093294788788646
 20
3.070222783321785
 11
1.057713812212218
 21
3.133573116655117
  0
LINE
  5
7F
100
AcDbEntity
  8
Engraving
  6
ByLayer
 62
  256
370
    0
100
AcDbLine
 10
1.057713812212218
 20
3.133573116655117
 11
1.057713812212218
 21
3.133573116655117
  0
LINE
  5
80
100
AcDbEntity
  8
Engraving
  6
ByLayer
 62
  256
370
    0
100
AcDbLine
 10
1.057713812212218
 20
3.133573116655117
 11
1.057713812212218
 21
3.133573116655117
  0
LINE
  5
81
100
AcDbEntity
  8
Engraving
  6
ByLayer
 62
  256
370
    0
100
AcDbLine
 10
1.057713812212218
 20
3.133573116655117
 11
1.213326145545513
 21
3.187144449988451
  0
LINE
  5
82
100
AcDbEntity
  8
Engraving
  6
ByLayer
 62
  256
370
    0
100
AcDbLine
 10
1.213326145545513
 20
3.187144449988451
 11
1.374040145545555
 21
3.225409783321787
  0
LINE
  5
83
100
AcDbEntity
  8
Engraving
  6
ByLayer
 62
  256
370
    0
100
AcDbLine
 10
1.374040145545555
 20
3.225409783321787
 11
1.539856478878894
 21
3.248369116655119
  0
LINE
  5
84
100
AcDbEntity
  8
Engraving
  6
ByLayer
 62
  256
370
    0
100
AcDbLine
 10
1.539856478878894
 20
3.248369116655119
 11
1.710774812212198
 21
3.256022116655119
  0
LINE
  5
85
100
AcDbEntity
  8
Engraving
  6
ByLayer
 62
  256
370
    0
100
AcDbLine
 10
1.710774812212198
 20
3.256022116655119
 11
6.343428145545536
 21
3.256022116655119
  0
LINE
  5
86
100
AcDbEntity
  8
Engraving
  6
ByLayer
 62
  256
370
    0
100
AcDbLine
 10
5.118938145545533
 20
2.011124116655118
 11
1.289006145545547
 21
2.011124116655118
  0
LINE
  5
87
100
AcDbEntity
  8
Engraving
  6
ByLayer
 62
  256
370
    0
100
AcDbLine
 10
1.289006145545547
 20
2.011124116655118
 11
1.289006145545547
 21
1.487314783321785
  0
LINE
  5
88
100
AcDbEntity
  8
Engraving
  6
ByLayer
 62
  256
370
    0
100
AcDbLine
 10
1.289006145545547
 20
1.487314783321785
 11
5.118938145545533
 21
1.487314783321785
  0
LINE
  5
89
100
AcDbEntity
  8
Engraving
  6
ByLayer
 62
  256
370
    0
100
AcDbLine
 10
5.118938145545533
 20
1.487314783321785
 11
5.118938145545533
 21
2.011124116655118
  0
LINE
  5
8A
100
AcDbEntity
  8
Engraving
  6
ByLayer
 62
  256
370
    0
100
AcDbLine
 10
12.37574536441474
 20
4.866260208091494
 11
12.04561869774806
 21
4.866260208091494
  0
LINE
  5
8B
100
AcDbEntity
  8
Engraving
  6
ByLayer
 62
  256
370
    0
100
AcDbLine
 10
12.04561869774806
 20
4.866260208091494
 11
12.04561869774806
 21
3.181353541424817
  0
LINE
  5
8C
100
AcDbEntity
  8
Engraving
  6
ByLayer
 62
  256
370
    0
100
AcDbLine
 10
12.04561869774806
 20
3.181353541424817
 11
12.36492136441474
 21
3.181353541424817
  0
LINE
  5
8D
100
AcDbEntity
  8
Engraving
  6
ByLayer
 62
  256
370
    0
100
AcDbLine
 10
12.36492136441474
 20
3.181353541424817
 11
12.36492136441474
 21
3.181353541424817
  0
LINE
  5
8E
100
AcDbEntity
  8
Engraving
  6
ByLayer
 62
  256
370
    0
100
AcDbLine
 10
12.36492136441474
 20
3.181353541424817
 11
12.36492136441474
 21
3.181353541424817
  0
LINE
  5
8F
100
AcDbEntity
  8
Engraving
  6
ByLayer
 62
  256
370
    0
100
AcDbLine
 10
12.36492136441474
 20
3.181353541424817
 11
12.44959536441473
 21
3.187328874758156
  0
LINE
  5
90
100
AcDbEntity
  8
Engraving
  6
ByLayer
 62
  256
370
    0
100
AcDbLine
 10
12.44959536441473
 20
3.187328874758156
 11
12.52141536441473
 21
3.205256208091489
  0
LINE
  5
91
100
AcDbEntity
  8
Engraving
  6
ByLayer
 62
  256
370
    0
100
AcDbLine
 10
12.52141536441473
 20
3.205256208091489
 11
12.58038269774807
 21
3.2351342080915
  0
LINE
  5
92
100
AcDbEntity
  8
Engraving
  6
ByLayer
 62
  256
370
    0
100
AcDbLine
 10
12.58038269774807
 20
3.2351342080915
 11
12.62649669774808
 21
3.276963541424825
  0
LINE
  5
93
100
AcDbEntity
  8
Engraving
  6
ByLayer
 62
  256
370
    0
100
AcDbLine
 10
12.62649669774808
 20
3.276963541424825
 11
12.62649669774808
 21
3.276963541424825
  0
LINE
  5
94
100
AcDbEntity
  8
Engraving
  6
ByLayer
 62
  256
370
    0
100
AcDbLine
 10
12.62649669774808
 20
3.276963541424825
 11
12.62649669774808
 21
3.276963541424825
  0
LINE
  5
95
100
AcDbEntity
  8
Engraving
  6
ByLayer
 62
  256
370
    0
100
AcDbLine
 10
12.62649669774808
 20
3.276963541424825
 11
12.66201269774808
 21
3.334352874758158
  0
LINE
  5
96
100
AcDbEntity
  8
Engraving
  6
ByLayer
 62
  256
370
    0
100
AcDbLine
 10
12.66201269774808
 20
3.334352874758158
 11
12.68738069774806
 21
3.409104874758162
  0
LINE
  5
97
100
AcDbEntity
  8
Engraving
  6
ByLayer
 62
  256
370
    0
100
AcDbLine
 10
12.68738069774806
 20
3.409104874758162
 11
12.70260203108139
 21
3.501219541424822
  0
LINE
  5
98
100
AcDbEntity
  8
Engraving
  6
ByLayer
 62
  256
370
    0
100
AcDbLine
 10
12.70260203108139
 20
3.501219541424822
 11
12.70767536441473
 21
3.610698208091497
  0
LINE
  5
99
100
AcDbEntity
  8
Engraving
  6
ByLayer
 62
  256
370
    0
100
AcDbLine
 10
12.70767536441473
 20
3.610698208091497
 11
12.70767536441473
 21
4.431503541424822
  0
LINE
  5
9A
100
AcDbEntity
  8
Engraving
  6
ByLayer
 62
  256
370
    0
100
AcDbLine
 10
12.70767536441473
 20
4.431503541424822
 11
12.70767536441473
 21
4.431503541424822
  0
LINE
  5
9B
100
AcDbEntity
  8
Engraving
  6
ByLayer
 62
  256
370
    0
100
AcDbLine
 10
12.70767536441473
 20
4.431503541424822
 11
12.70767536441473
 21
4.431503541424822
  0
LINE
  5
9C
100
AcDbEntity
  8
Engraving
  6
ByLayer
 62
  256
370
    0
100
AcDbLine
 10
12.70767536441473
 20
4.431503541424822
 11
12.70282736441474
 21
4.541094874758163
  0
LINE
  5
9D
100
AcDbEntity
  8
Engraving
  6
ByLayer
 62
  256
370
    0
100
AcDbLine
 10
12.70282736441474
 20
4.541094874758163
 11
12.68828269774806
 21
4.633548208091487
  0
LINE
  5
9E
100
AcDbEntity
  8
Engraving
  6
ByLayer
 62
  256
370
    0
100
AcDbLine
 10
12.68828269774806
 20
4.633548208091487
 11
12.6640420310814
 21
4.708864208091488
  0
LINE
  5
9F
100
AcDbEntity
  8
Engraving
  6
ByLayer
 62
  256
370
    0
100
AcDbLine
 10
12.6640420310814
 20
4.708864208091488
 11
12.63010469774806
 21
4.767042208091486
  0
LINE
  5
A0
100
AcDbEntity
  8
Engraving
  6
ByLayer
 62
  256
370
    0
100
AcDbLine
 10
12.63010469774806
 20
4.767042208091486
 11
12.63010469774806
 21
4.767042208091486
  0
LINE
  5
A1
100
AcDbEntity
  8
Engraving
  6
ByLayer
 62
  256
370
    0
100
AcDbLine
 10
12.63010469774806
 20
4.767042208091486
 11
12.63010469774806
 21
4.767042208091486
  0
LINE
  5
A2
100
AcDbEntity
  8
Engraving
  6
ByLayer
 62
  256
370
    0
100
AcDbLine
 10
12.63010469774806
 20
4.767042208091486
 11
12.5851180310814
 21
4.810450208091486
  0
LINE
  5
A3
100
AcDbEntity
  8
Engraving
  6
ByLayer
 62
  256
370
    0
100
AcDbLine
 10
12.5851180310814
 20
4.810450208091486
 11
12.52772936441473
 21
4.841455541424826
  0
LINE
  5
A4
100
AcDbEntity
  8
Engraving
  6
ByLayer
 62
  256
370
    0
100
AcDbLine
 10
12.52772936441473
 20
4.841455541424826
 11
12.45793869774807
 21
4.860058874758157
  0
LINE
  5
A5
100
AcDbEntity
  8
Engraving
  6
ByLayer
 62
  256
370
    0
100
AcDbLine
 10
12.45793869774807
 20
4.860058874758157
 11
12.37574536441474
 21
4.866260208091494
  0
LINE
  5
A6
100
AcDbEntity
  8
Engraving
  6
ByLayer
 62
  256
370
    0
100
AcDbLine
 10
9.595829364414735
 20
0.2192368747581574
 11
9.595829364414735
 21
6.219236874758157
  0
LINE
  5
A7
100
AcDbEntity
  8
Engraving
  6
ByLayer
 62
  256
370
    0
100
AcDbLine
 10
9.595829364414735
 20
6.219236874758157
 11
13.60064003108141
 21
6.219236874758157
  0
LINE
  5
A8
100
AcDbEntity
  8
Engraving
  6
ByLayer
 62
  256
370
    0
100
AcDbLine
 10
13.60064003108141
 20
6.219236874758157
 11
13.60064003108141
 21
6.219236874758157
  0
LINE
  5
A9
100
AcDbEntity
  8
Engraving
  6
ByLayer
 62
  256
370
    0
100
AcDbLine
 10
13.60064003108141
 20
6.219236874758157
 11
13.60064003108141
 21
6.219236874758157
  0
LINE
  5
AA
100
AcDbEntity
  8
Engraving
  6
ByLayer
 62
  256
370
    0
100
AcDbLine
 10
13.60064003108141
 20
6.219236874758157
 11
13.8029100310814
 21
6.214614208091494
  0
LINE
  5
AB
100
AcDbEntity
  8
Engraving
  6
ByLayer
 62
  256
370
    0
100
AcDbLine
 10
13.8029100310814
 20
6.214614208091494
 11
13.98939536441474
 21
6.200746208091492
  0
LINE
  5
AC
100
AcDbEntity
  8
Engraving
  6
ByLayer
 62
  256
370
    0
100
AcDbLine
 10
13.98939536441474
 20
6.200746208091492
 11
14.1600960310814
 21
6.177632874758165
  0
LINE
  5
AD
100
AcDbEntity
  8
Engraving
  6
ByLayer
 62
  256
370
    0
100
AcDbLine
 10
14.1600960310814
 20
6.177632874758165
 11
14.31501136441474
 21
6.145274208091483
  0
LINE
  5
AE
100
AcDbEntity
  8
Engraving
  6
ByLayer
 62
  256
370
    0
100
AcDbLine
 10
14.31501136441474
 20
6.145274208091483
 11
14.31501136441474
 21
6.145274208091483
  0
LINE
  5
AF
100
AcDbEntity
  8
Engraving
  6
ByLayer
 62
  256
370
    0
100
AcDbLine
 10
14.31501136441474
 20
6.145274208091483
 11
14.31501136441474
 21
6.145274208091483
  0
LINE
  5
B0
100
AcDbEntity
  8
Engraving
  6
ByLayer
 62
  256
370
    0
100
AcDbLine
 10
14.31501136441474
 20
6.145274208091483
 11
14.4561720310814
 21
6.10321887475816
  0
LINE
  5
B1
100
AcDbEntity
  8
Engraving
  6
ByLayer
 62
  256
370
    0
100
AcDbLine
 10
14.4561720310814
 20
6.10321887475816
 11
14.58380269774806
 21
6.051016874758152
  0
LINE
  5
B2
100
AcDbEntity
  8
Engraving
  6
ByLayer
 62
  256
370
    0
100
AcDbLine
 10
14.58380269774806
 20
6.051016874758152
 11
14.6979040310814
 21
5.988666874758157
  0
LINE
  5
B3
100
AcDbEntity
  8
Engraving
  6
ByLayer
 62
  256
370
    0
100
AcDbLine
 10
14.6979040310814
 20
5.988666874758157
 11
14.79847536441474
 21
5.916170208091491
  0
LINE
  5
B4
100
AcDbEntity
  8
Engraving
  6
ByLayer
 62
  256
370
    0
100
AcDbLine
 10
14.79847536441474
 20
5.916170208091491
 11
14.79847536441474
 21
5.916170208091491
  0
LINE
  5
B5
100
AcDbEntity
  8
Engraving
  6
ByLayer
 62
  256
370
    0
100
AcDbLine
 10
14.79847536441474
 20
5.916170208091491
 11
14.79847536441474
 21
5.916170208091491
  0
LINE
  5
B6
100
AcDbEntity
  8
Engraving
  6
ByLayer
 62
  256
370
    0
100
AcDbLine
 10
14.79847536441474
 20
5.916170208091491
 11
14.88585469774807
 21
5.832849541424825
  0
LINE
  5
B7
100
AcDbEntity
  8
Engraving
  6
ByLayer
 62
  256
370
    0
100
AcDbLine
 10
14.88585469774807
 20
5.832849541424825
 11
14.96038136441474
 21
5.738028208091497
  0
LINE
  5
B8
100
AcDbEntity
  8
Engraving
  6
ByLayer
 62
  256
370
    0
100
AcDbLine
 10
14.96038136441474
 20
5.738028208091497
 11
15.02205469774807
 21
5.631706874758156
  0
LINE
  5
B9
100
AcDbEntity
  8
Engraving
  6
ByLayer
 62
  256
370
    0
100
AcDbLine
 10
15.02205469774807
 20
5.631706874758156
 11
15.07087469774808
 21
5.513884874758152
  0
LINE
  5
BA
100
AcDbEntity
  8
Engraving
  6
ByLayer
 62
  256
370
    0
100
AcDbLine
 10
15.07087469774808
 20
5.513884874758152
 11
15.07087469774808
 21
5.513884874758152
  0
LINE
  5
BB
100
AcDbEntity
  8
Engraving
  6
ByLayer
 62
  256
370
    0
100
AcDbLine
 10
15.07087469774808
 20
5.513884874758152
 11
15.07087469774808
 21
5.513884874758152
  0
LINE
  5
BC
100
AcDbEntity
  8
Engraving
  6
ByLayer
 62
  256
370
    0
100
AcDbLine
 10
15.07087469774808
 20
5.513884874758152
 11
15.1087580310814
 21
5.384450208091498
  0
LINE
  5
BD
100
AcDbEntity
  8
Engraving
  6
ByLayer
 62
  256
370
    0
100
AcDbLine
 10
15.1087580310814
 20
5.384450208091498
 11
15.13581736441474
 21
5.24328954142482
  0
LINE
  5
BE
100
AcDbEntity
  8
Engraving
  6
ByLayer
 62
  256
370
    0
100
AcDbLine
 10
15.13581736441474
 20
5.24328954142482
 11
15.15205336441474
 21
5.090403541424824
  0
LINE
  5
BF
100
AcDbEntity
  8
Engraving
  6
ByLayer
 62
  256
370
    0
100
AcDbLine
 10
15.15205336441474
 20
5.090403541424824
 11
15.15746469774808
 21
4.925791541424819
  0
LINE
  5
C0
100
AcDbEntity
  8
Engraving
  6
ByLayer
 62
  256
370
    0
100
AcDbLine
 10
15.15746469774808
 20
4.925791541424819
 11
15.15746469774808
 21
3.271552208091497
  0
LINE
  5
C1
100
AcDbEntity
  8
Engraving
  6
ByLayer
 62
  256
370
    0
100
AcDbLine
 10
15.15746469774808
 20
3.271552208091497
 11
15.15746469774808
 21
3.271552208091497
  0
LINE
  5
C2
100
AcDbEntity
  8
Engraving
  6
ByLayer
 62
  256
370
    0
100
AcDbLine
 10
15.15746469774808
 20
3.271552208091497
 11
15.15746469774808
 21
3.271552208091497
  0
LINE
  5
C3
100
AcDbEntity
  8
Engraving
  6
ByLayer
 62
  256
370
    0
100
AcDbLine
 10
15.15746469774808
 20
3.271552208091497
 11
15.13570469774808
 21
2.895762874758167
  0
LINE
  5
C4
100
AcDbEntity
  8
Engraving
  6
ByLayer
 62
  256
370
    0
100
AcDbLine
 10
15.13570469774808
 20
2.895762874758167
 11
15.07042336441473
 21
2.581984874758154
  0
LINE
  5
C5
100
AcDbEntity
  8
Engraving
  6
ByLayer
 62
  256
370
    0
100
AcDbLine
 10
15.07042336441473
 20
2.581984874758154
 11
14.96162136441473
 21
2.330218208091485
  0
LINE
  5
C6
100
AcDbEntity
  8
Engraving
  6
ByLayer
 62
  256
370
    0
100
AcDbLine
 10
14.96162136441473
 20
2.330218208091485
 11
14.80929869774807
 21
2.140463541424827
  0
LINE
  5
C7
100
AcDbEntity
  8
Engraving
  6
ByLayer
 62
  256
370
    0
100
AcDbLine
 10
14.80929869774807
 20
2.140463541424827
 11
14.80929869774807
 21
2.140463541424827
  0
LINE
  5
C8
100
AcDbEntity
  8
Engraving
  6
ByLayer
 62
  256
370
    0
100
AcDbLine
 10
14.80929869774807
 20
2.140463541424827
 11
14.80929869774807
 21
2.140463541424827
  0
LINE
  5
C9
100
AcDbEntity
  8
Engraving
  6
ByLayer
 62
  256
370
    0
100
AcDbLine
 10
14.80929869774807
 20
2.140463541424827
 11
14.60793069774807
 21
2.0015582080915
  0
LINE
  5
CA
100
AcDbEntity
  8
Engraving
  6
ByLayer
 62
  256
370
    0
100
AcDbLine
 10
14.60793069774807
 20
2.0015582080915
 11
14.33936536441473
 21
1.902339541424828
  0
LINE
  5
CB
100
AcDbEntity
  8
Engraving
  6
ByLayer
 62
  256
370
    0
100
AcDbLine
 10
14.33936536441473
 20
1.902339541424828
 11
14.00360136441474
 21
1.842808874758153
  0
LINE
  5
CC
100
AcDbEntity
  8
Engraving
  6
ByLayer
 62
  256
370
    0
100
AcDbLine
 10
14.00360136441474
 20
1.842808874758153
 11
13.60064003108141
 21
1.822964874758161
  0
LINE
  5
CD
100
AcDbEntity
  8
Engraving
  6
ByLayer
 62
  256
370
    0
100
AcDbLine
 10
13.60064003108141
 20
1.822964874758161
 11
12.04561869774806
 21
1.822964874758161
  0
LINE
  5
CE
100
AcDbEntity
  8
Engraving
  6
ByLayer
 62
  256
370
    0
100
AcDbLine
 10
12.04561869774806
 20
1.822964874758161
 11
12.04561869774806
 21
0.2192368747581574
  0
LINE
  5
CF
100
AcDbEntity
  8
Engraving
  6
ByLayer
 62
  256
370
    0
100
AcDbLine
 10
12.04561869774806
 20
0.2192368747581574
 11
9.595829364414735
 21
0.2192368747581574
  0
ENDSEC
  0
SECTION
  2
OBJECTS
  0
DICTIONARY
  5
C
330
0
100
AcDbDictionary
281
    1
  3
ACAD_GROUP
350
D
  0
DICTIONARY
  5
D
330
C
100
AcDbDictionary
281
    1
  0
ENDSEC
  0
EOF
